<svg xmlns="http://www.w3.org/2000/svg" version="1.1" xmlns:xlink="http://www.w3.org/1999/xlink" xmlns:svgjs="http://svgjs.dev/svgjs" width="1000" height="623" viewBox="0 0 1000 623"><g transform="matrix(1,0,0,1,-0.6060606060606233,0.2522267206477409)"><svg viewBox="0 0 396 247" data-background-color="#000" preserveAspectRatio="xMidYMid meet" height="623" width="1000" xmlns="http://www.w3.org/2000/svg" xmlns:xlink="http://www.w3.org/1999/xlink"><defs></defs><g id="tight-bounds" transform="matrix(1,0,0,1,0.2400000000000091,-0.09999999999999432)"><svg viewBox="0 0 395.52 247.2" height="247.2" width="395.52"><g><svg></svg></g><g><svg viewBox="0 0 395.52 247.2" height="247.2" width="395.52"><g transform="matrix(1,0,0,1,95.5503817403709,47.215199999999996)"><svg viewBox="0 0 204.4192365192582 152.7696" height="152.7696" width="204.4192365192582"><g><svg viewBox="0 0 204.4192365192582 152.7696" height="152.7696" width="204.4192365192582"><g><svg viewBox="0 0 204.4192365192582 152.7696" height="152.7696" width="204.4192365192582"><g><svg viewBox="0 0 204.4192365192582 152.7696" height="152.7696" width="204.4192365192582"><g><svg viewBox="0 0 204.4192365192582 152.7696" height="152.7696" width="204.4192365192582"><g><svg viewBox="0 0 204.4192365192582 152.7696" height="152.7696" width="204.4192365192582"><g transform="matrix(1,0,0,1,0,0)"><svg width="204.4192365192582" viewBox="1.25 -35 46.900001525878906 35.04999923706055" height="152.7696" data-palette-color="#000"><path d="M16.8 0L10.7 0.05 1.25-35 6.95-35 13.9-6 21.9-35 27.75-35 35.5-6 42.45-35 48.15-35 38.55 0 32.35 0 24.7-27.45 16.8 0Z" opacity="1" transform="matrix(1,0,0,1,0,0)" fill="#000" class="undefined-text-0" data-fill-palette-color="primary" id="text-0"></path></svg></g></svg></g></svg></g></svg></g></svg></g></svg></g></svg></g><path d="M117.668 41.215L117.668 0 364.868 0 364.868 247.2 117.668 247.2 117.668 205.985 131.445 205.985 131.445 233.423 351.091 233.423 351.091 13.777 131.445 13.777 131.445 41.215Z" fill="#000" stroke="transparent" data-fill-palette-color="primary"></path></svg></g></svg><rect width="395.52" height="247.2" fill="none" stroke="none" visibility="hidden"></rect></g></svg></g></svg>