<svg width="133" height="95" viewBox="0 0 133 95" fill="none" xmlns="http://www.w3.org/2000/svg">
<rect x="2.5" y="2.5" width="128" height="90" stroke="white" stroke-width="5"/>
<path d="M33.4283 66H25.1896L37.7429 29.6364H47.6506L60.1861 66H51.9474L42.8388 37.946H42.5547L33.4283 66ZM32.9134 51.7067H52.3736V57.7081H32.9134V51.7067Z" fill="white"/>
<path d="M62.1605 66V29.6364H76.5071C79.2652 29.6364 81.6148 30.1631 83.5561 31.2166C85.4974 32.2583 86.977 33.7083 87.995 35.5668C89.0249 37.4134 89.5398 39.544 89.5398 41.9588C89.5398 44.3736 89.0189 46.5043 87.9773 48.3509C86.9356 50.1974 85.4264 51.6357 83.4496 52.6655C81.4846 53.6953 79.1054 54.2102 76.3118 54.2102H67.1676V48.049H75.0689C76.5485 48.049 77.7678 47.7945 78.7266 47.2855C79.6972 46.7647 80.4193 46.0485 80.8928 45.1371C81.3781 44.2138 81.6207 43.1544 81.6207 41.9588C81.6207 40.7514 81.3781 39.6979 80.8928 38.7983C80.4193 37.8868 79.6972 37.1825 78.7266 36.6854C77.7559 36.1764 76.5249 35.9219 75.0334 35.9219H69.8487V66H62.1605Z" fill="white"/>
<path d="M102.849 29.6364V66H95.1605V29.6364H102.849Z" fill="white"/>
</svg>
