<?xml version="1.0" standalone="no"?>
<!DOCTYPE svg PUBLIC "-//W3C//DTD SVG 20010904//EN"
 "http://www.w3.org/TR/2001/REC-SVG-20010904/DTD/svg10.dtd">
<svg version="1.0" xmlns="http://www.w3.org/2000/svg"
 width="512.000000pt" height="512.000000pt" viewBox="0 0 512.000000 512.000000"
 preserveAspectRatio="xMidYMid meet">

<g transform="translate(0.000000,512.000000) scale(0.100000,-0.100000)"
fill="#000000" stroke="none">
<path d="M2362 5069 c-316 -28 -603 -109 -897 -253 -319 -157 -593 -369 -811
-629 -82 -98 -93 -121 -70 -165 17 -33 34 -42 77 -42 33 0 39 5 152 137 285
335 723 603 1172 718 232 59 323 70 595 70 273 0 362 -11 596 -70 457 -117
899 -374 1224 -711 52 -55 110 -118 128 -141 l32 -41 -131 -4 c-123 -3 -132
-4 -150 -27 -10 -13 -19 -36 -19 -51 0 -82 23 -90 272 -90 184 0 206 2 235 20
18 11 35 30 38 43 4 13 5 112 3 220 -3 188 -4 197 -25 219 -30 30 -86 30 -116
0 -17 -17 -23 -38 -27 -90 l-5 -68 -70 76 c-570 614 -1411 949 -2203 879z"/>
<path d="M2354 4191 c-81 -37 -114 -109 -114 -252 l0 -87 -82 -25 c-46 -15
-125 -47 -177 -72 l-93 -45 -69 64 c-38 36 -83 73 -101 83 -43 22 -133 22
-175 0 -46 -25 -252 -225 -273 -267 -50 -98 -36 -160 61 -264 l71 -76 -46 -92
c-25 -51 -58 -130 -73 -175 l-28 -83 -97 0 c-107 0 -139 -8 -182 -48 -58 -54
-66 -89 -66 -285 0 -189 5 -211 54 -265 40 -45 75 -56 189 -62 l109 -5 29 -90
c15 -49 48 -129 72 -177 l44 -87 -64 -63 c-36 -35 -73 -80 -84 -100 -24 -46
-25 -127 -3 -171 22 -41 205 -234 255 -269 92 -62 172 -47 276 55 l73 70 107
-51 c60 -28 141 -61 181 -73 l72 -23 0 -105 c0 -93 3 -109 25 -147 14 -23 42
-53 62 -66 36 -22 49 -23 229 -27 178 -3 194 -2 232 18 40 20 81 65 97 106 4
11 11 67 14 123 l6 104 90 29 c50 15 129 48 177 72 l87 44 67 -68 c38 -38 83
-76 100 -84 42 -20 127 -19 167 1 45 24 252 221 275 263 53 98 37 168 -62 269
l-72 74 47 91 c26 51 59 129 74 173 l28 82 108 4 c101 3 110 5 150 33 23 17
53 50 66 74 22 41 23 55 23 223 0 198 -5 222 -61 275 -48 45 -77 53 -192 53
l-102 0 -28 88 c-16 48 -49 129 -73 180 l-45 94 74 77 c98 103 116 171 69 266
-23 47 -232 255 -277 276 -45 21 -109 24 -152 8 -15 -5 -60 -41 -99 -80 l-70
-70 -113 55 c-62 30 -142 62 -177 72 l-64 19 0 90 c0 106 -11 153 -47 195 -52
62 -82 70 -280 70 -152 0 -184 -3 -219 -19z m376 -286 c3 -77 9 -147 13 -156
11 -22 38 -34 132 -59 84 -22 239 -91 316 -141 74 -47 87 -42 200 67 85 82
101 94 118 85 28 -15 196 -200 199 -219 1 -10 -35 -55 -93 -112 -74 -74 -95
-101 -95 -122 0 -16 22 -67 50 -116 57 -101 93 -193 120 -306 27 -114 30 -116
199 -116 93 0 141 -4 149 -12 17 -17 17 -289 0 -306 -8 -8 -54 -12 -139 -12
-161 0 -165 -3 -203 -139 -29 -102 -87 -235 -138 -314 -50 -78 -45 -94 60
-200 51 -51 92 -99 92 -108 0 -19 -202 -219 -221 -219 -8 0 -57 43 -109 95
-114 115 -123 117 -238 51 -95 -55 -208 -101 -298 -121 -102 -23 -103 -24
-119 -55 -11 -21 -15 -63 -15 -158 0 -109 -3 -131 -16 -136 -31 -12 -289 -7
-302 6 -8 8 -12 54 -12 139 0 161 -3 165 -139 203 -100 28 -235 87 -312 136
-78 51 -100 45 -204 -60 -49 -50 -97 -90 -105 -90 -19 0 -220 201 -220 220 0
7 43 57 96 110 114 116 116 125 55 227 -55 93 -107 221 -128 315 -25 118 -32
122 -204 126 -133 3 -139 4 -144 25 -3 12 -4 83 -3 157 l3 135 135 5 c81 3
144 10 157 18 16 8 28 34 43 85 34 120 88 250 135 326 68 110 65 123 -46 236
-50 51 -89 99 -87 107 5 19 203 208 218 208 8 0 57 -43 111 -95 113 -112 120
-113 222 -55 103 60 198 99 306 126 139 35 141 38 141 214 0 101 3 140 13 144
6 2 77 4 157 3 l145 -2 5 -140z"/>
<path d="M2473 3279 c-168 -20 -323 -96 -443 -218 -136 -139 -199 -283 -208
-478 -6 -141 13 -231 76 -356 38 -76 61 -107 136 -182 155 -153 314 -219 526
-219 138 0 223 19 335 74 192 94 334 264 391 470 28 101 26 283 -4 380 -30 93
-66 166 -87 174 -28 11 -70 7 -92 -9 -37 -26 -37 -63 -1 -151 27 -68 32 -94
36 -186 4 -90 1 -118 -19 -183 -50 -171 -190 -315 -362 -375 -78 -27 -224 -37
-309 -21 -35 7 -100 30 -146 52 -280 135 -398 469 -262 746 94 192 303 322
516 323 72 0 110 16 125 52 35 85 -46 127 -208 107z"/>
<path d="M2843 3200 c-27 -11 -43 -40 -43 -79 0 -37 19 -57 93 -100 63 -36 95
-35 127 6 40 51 20 98 -63 147 -64 37 -77 41 -114 26z"/>
<path d="M208 3540 c-97 -49 -183 -99 -192 -112 -21 -30 -20 -60 4 -91 33 -42
63 -42 147 -3 41 20 77 36 78 36 2 0 -17 -57 -42 -127 -58 -165 -118 -401
-134 -527 -13 -105 -8 -298 11 -442 76 -567 326 -1065 736 -1464 207 -202 392
-332 649 -460 347 -172 718 -260 1096 -260 143 0 159 2 183 21 35 27 36 86 4
116 -21 19 -40 21 -208 26 -375 12 -670 84 -995 242 -247 120 -434 254 -636
455 -207 207 -361 427 -477 683 -143 318 -210 641 -199 972 4 146 8 174 45
315 35 136 108 356 130 396 5 9 19 -13 41 -64 19 -42 43 -87 54 -99 26 -30 75
-30 112 -1 24 18 27 26 22 62 -3 23 -42 120 -87 217 -82 178 -99 200 -148 198
-9 0 -97 -40 -194 -89z"/>
<path d="M4819 3501 c-16 -16 -29 -36 -29 -43 0 -8 16 -60 35 -117 89 -261
125 -477 125 -746 0 -104 -7 -224 -15 -283 -92 -647 -489 -1255 -1073 -1643
-120 -80 -351 -206 -410 -224 -22 -6 -22 -4 12 46 41 61 45 95 15 133 -16 20
-29 26 -58 26 -20 0 -44 -6 -53 -13 -9 -6 -64 -86 -122 -176 -111 -171 -121
-200 -88 -240 9 -11 99 -57 200 -101 196 -87 225 -92 257 -47 18 26 20 77 3
100 -7 9 -48 33 -92 52 l-78 37 95 42 c573 258 1038 690 1312 1219 243 469
318 972 224 1500 -22 123 -67 294 -106 400 -40 106 -96 135 -154 78z"/>
</g>
</svg>
