<svg width="51" height="63" viewBox="0 0 51 63" fill="none" xmlns="http://www.w3.org/2000/svg">
<path d="M28.6 14.95C29.4667 14.95 30.1667 15.25 30.7 15.85C31.2333 16.4167 31.5 17.1333 31.5 18V36.1C31.5 38.8667 30.9 41.3167 29.7 43.45C28.5333 45.5833 26.9167 47.25 24.85 48.45C22.7833 49.65 20.3833 50.25 17.65 50.25C14.9167 50.25 12.5 49.65 10.4 48.45C8.33333 47.25 6.7 45.5833 5.5 43.45C4.33333 41.3167 3.75 38.8667 3.75 36.1V18C3.75 17.1333 4.05 16.4167 4.65 15.85C5.25 15.25 6.01667 14.95 6.95 14.95C7.71667 14.95 8.4 15.25 9 15.85C9.63333 16.4167 9.95 17.1333 9.95 18V36.1C9.95 37.7667 10.3 39.2167 11 40.45C11.7333 41.65 12.6833 42.5833 13.85 43.25C15.05 43.9167 16.3167 44.25 17.65 44.25C19.0833 44.25 20.4167 43.9167 21.65 43.25C22.8833 42.5833 23.8833 41.65 24.65 40.45C25.4167 39.2167 25.8 37.7667 25.8 36.1V18C25.8 17.1333 26.05 16.4167 26.55 15.85C27.05 15.25 27.7333 14.95 28.6 14.95Z" fill="white"/>
<path d="M47 46.95C47 47.8167 46.6833 48.55 46.05 49.15C45.4167 49.7167 44.6833 50 43.85 50C42.9167 50 42.1667 49.7167 41.6 49.15C41.0333 48.55 40.75 47.8167 40.75 46.95V18.05C40.75 17.1833 41.05 16.4667 41.65 15.9C42.25 15.3 43.0167 15 43.95 15C44.75 15 45.45 15.3 46.05 15.9C46.6833 16.4667 47 17.1833 47 18.05V46.95Z" fill="white"/>
</svg>
