<svg width="64" height="64" viewBox="0 0 64 64" fill="none" xmlns="http://www.w3.org/2000/svg">
<path d="M57.334 46.09C59.738 41.783 61 36.9325 61 32C61 27.0675 59.738 22.217 57.334 17.91C57.3215 17.7699 57.2787 17.6343 57.2086 17.5124C57.1385 17.3905 57.0428 17.2853 56.928 17.204C53.6859 11.7388 48.7384 7.48973 42.8463 5.11012C36.9541 2.73051 30.4434 2.35209 24.3153 4.03303C18.1871 5.71397 12.7806 9.36122 8.92717 14.414C5.07369 19.4668 2.98651 25.6455 2.98651 32C2.98651 38.3545 5.07369 44.5332 8.92717 49.586C12.7806 54.6388 18.1871 58.286 24.3153 59.967C30.4434 61.6479 36.9541 61.2695 42.8463 58.8899C48.7384 56.5103 53.6859 52.2612 56.928 46.796C57.0428 46.7147 57.1385 46.6095 57.2086 46.4876C57.2787 46.3657 57.3215 46.2301 57.334 46.09ZM15.38 47H19.959C20.9178 50.7737 22.6704 54.2995 25.1 57.342C20.8268 55.0366 17.4163 51.4078 15.38 47ZM5.02501 33H10.019C10.1102 37.1026 10.896 41.16 12.343 45H8.34301C6.31058 41.3158 5.17393 37.205 5.02501 33ZM8.34501 19H12.345C10.898 22.84 10.1122 26.8974 10.021 31H5.02501C5.17454 26.7949 6.31189 22.684 8.34501 19ZM48.62 17H44.041C43.0823 13.2263 41.3296 9.70054 38.9 6.65801C43.1732 8.96342 46.5837 12.5922 48.62 17ZM58.975 31H53.981C53.8898 26.8974 53.104 22.84 51.657 19H55.657C57.6894 22.6842 58.8261 26.795 58.975 31ZM51.981 31H45.988C45.9448 26.9604 45.4664 22.9371 44.561 19H49.522C51.056 22.8198 51.889 26.8848 51.981 31ZM31 19V31H20.012C20.0656 26.9552 20.5775 22.9295 21.538 19H31ZM22.09 17C24.09 10.414 27.342 5.82301 31 5.10601V17H22.09ZM31 33V45H21.538C20.5775 41.0705 20.0656 37.0448 20.012 33H31ZM31 47V58.894C27.342 58.177 24.091 53.586 22.09 47H31ZM33 45V33H43.988C43.9345 37.0448 43.4225 41.0705 42.462 45H33ZM41.91 47C39.91 53.586 36.657 58.177 33 58.894V47H41.91ZM33 31V19H42.462C43.4225 22.9295 43.9345 26.9552 43.988 31H33ZM33 17V5.10601C36.657 5.82301 39.908 10.414 41.91 17H33ZM25.1 6.65801C22.6704 9.70054 20.9178 13.2263 19.959 17H15.38C17.4163 12.5922 20.8268 8.96342 25.1 6.65801ZM19.438 19C18.533 22.9372 18.0549 26.9604 18.012 31H12.019C12.1107 26.8848 12.9433 22.8198 14.477 19H19.438ZM12.019 33H18.012C18.0549 37.0396 18.533 41.0628 19.438 45H14.477C12.9433 41.1802 12.1107 37.1152 12.019 33ZM38.9 57.342C41.3296 54.2995 43.0823 50.7737 44.041 47H48.62C46.5837 51.4078 43.1732 55.0366 38.9 57.342ZM44.561 45C45.4664 41.0629 45.9448 37.0397 45.988 33H51.981C51.889 37.1153 51.056 41.1802 49.522 45H44.561ZM53.981 33H58.975C58.8255 37.2051 57.6881 41.316 55.655 45H51.655C53.1027 41.1601 53.8892 37.1027 53.981 33ZM54.437 17H50.822C49.2926 13.5842 47.0806 10.5173 44.322 7.98801C48.4001 10.0904 51.8798 13.1906 54.437 17ZM19.677 7.98801C16.919 10.5176 14.7074 13.5844 13.178 17H9.56301C12.1198 13.1907 15.5992 10.0904 19.677 7.98801ZM9.56301 47H13.178C14.7077 50.4157 16.9197 53.4825 19.678 56.012C15.5998 53.9098 12.1201 50.8095 9.56301 47ZM44.322 56.012C47.0806 53.4827 49.2926 50.4158 50.822 47H54.437C51.8798 50.8094 48.4001 53.9096 44.322 56.012Z" fill="black"/>
</svg>
